<?xml version="1.0" encoding="utf-8"?>
<!DOCTYPE svg PUBLIC "-//W3C//DTD SVG 20010904//EN" "http://www.w3.org/TR/2001/REC-SVG-20010904/DTD/svg10.dtd">
<svg version="1.0" xmlns="http://www.w3.org/2000/svg" width="2545px" height="675px" viewBox="0 0 2545 675" preserveAspectRatio="xMidYMid meet">
 <g fill="#9e6e27">
  <path d="M0 594.2 c0 -2.7 0.4 -3.1 3.3 -3.5 l3.2 -0.4 -3.3 -0.1 -3.2 -0.2 0 -26.3 0.1 -26.4 648.1 -0.6 c356.5 -0.4 929.1 -0.7 1272.5 -0.7 l624.3 0 0 27.4 c0 22.5 -0.2 27.5 -1.4 27.9 -0.8 0.3 -54.2 0.6 -118.7 0.6 -64.6 0.1 -298.5 0.6 -519.9 1.1 -442.8 1.1 -1096.7 2.6 -1587.7 3.6 l-317.3 0.7 0 -3.1z m236.3 -4.9 c-1.3 -0.2 -3.5 -0.2 -5 0 -1.6 0.2 -0.5 0.4 2.2 0.4 2.8 0 4 -0.2 2.8 -0.4z m427.5 -1 c-8.2 -0.2 -21.4 -0.2 -29.5 0 -8.2 0.1 -1.5 0.3 14.7 0.3 16.2 0 22.9 -0.2 14.8 -0.3z m766.5 -2 c-16.1 -0.2 -42.5 -0.2 -58.5 0 -16.1 0.1 -3 0.2 29.2 0.2 32.2 0 45.3 -0.1 29.3 -0.2z m411.5 -1 c-15.8 -0.2 -41.9 -0.2 -58 0 -16.1 0.1 -3.2 0.2 28.7 0.2 31.9 0 45.1 -0.1 29.3 -0.2z m443.5 -1 c-5.7 -0.2 -14.9 -0.2 -20.5 0 -5.7 0.1 -1.1 0.3 10.2 0.3 11.3 0 15.9 -0.2 10.3 -0.3z"/>
  <path d="M109.8 483.4 c-1.9 -0.6 -2.3 -1.9 -3.3 -10.2 -0.7 -6.3 -2.5 -163 -1.9 -164.6 0.3 -0.7 5.4 -1.2 15.2 -1.4 53.9 -0.9 107.4 -2.1 107.6 -2.4 0.4 -0.7 -1 -46.8 -1.4 -47.2 -0.3 -0.2 -38.9 -0.1 -85.8 0.2 l-85.3 0.7 -0.4 20.5 c-0.3 11.3 -1.2 60.3 -2.1 109 -1 53.9 -2.1 89 -2.7 89.8 -1.5 1.9 -45.6 1.7 -48.3 -0.2 -1.6 -1.3 -1.7 -1.8 -0.6 -3.5 0.7 -1.3 0.8 -2.1 0.2 -2.1 -0.7 0 -1 -46.2 -1 -138.9 l0 -138.8 3.8 -0.6 c2.1 -0.4 67.4 -0.7 145.2 -0.7 l141.5 -0.1 1.3 3.1 c0.9 2.3 1.3 12.4 1.5 37.8 0.4 61.7 -0.4 130.6 -1.5 132 -0.8 0.9 -13.9 1.2 -59.2 1.2 l-58.2 0 0 28.1 0.1 28.1 29 -0.6 c16 -0.4 55.1 -1.1 86.9 -1.7 31.9 -0.5 58.2 -1.1 58.4 -1.3 0.2 -0.2 0.3 -50.8 0.2 -112.4 0 -87.1 0.2 -112.2 1.2 -112.8 0.6 -0.4 68.2 -1.2 150.2 -1.6 129.7 -0.8 149.2 -0.7 150.1 0.5 0.6 0.8 1.9 1.6 3 1.8 1.6 0.3 2.1 1.5 2.6 5.4 0.5 4.1 1.4 153.3 1 164.1 -0.1 1.8 -0.7 3.7 -1.4 4.3 -0.9 0.7 -20 1.3 -59 1.7 l-57.7 0.7 0 22.2 c0 23.2 -0.6 26.6 -4.4 25.2 -0.9 -0.4 -1.6 -0.1 -1.6 0.6 0 0.9 20.4 1.3 91.6 1.6 l91.6 0.3 -0.6 -48.8 c-1.7 -138.5 -1.8 -175.4 -0.6 -176.9 1.5 -1.9 3.9 -1.9 5.9 -0.2 1.3 1.2 12.7 1.3 66.6 0.7 66 -0.8 222.5 -1.3 230.2 -0.7 2.4 0.1 4.8 0.8 5.5 1.5 1.9 1.9 2.5 167.6 0.6 169.9 -1.2 1.4 -6.9 1.5 -57.6 0.9 -31 -0.4 -57 -1 -57.8 -1.3 -1.2 -0.4 -1.4 3.8 -1.4 26.4 l0 27 61.3 0.7 c33.6 0.3 72.8 0.9 87 1.3 l25.7 0.6 0 -114.1 c0 -104.1 0.1 -114.2 1.6 -115.7 0.9 -0.9 2.4 -1.3 3.2 -1 0.9 0.3 68.5 0.7 150.4 0.8 127.3 0.2 148.9 0.4 149.3 1.6 0.7 1.7 1.1 23.2 2.1 108.1 0.6 52.2 0.5 61.7 -0.7 62.6 -1 0.8 -19.2 1.3 -59.4 1.8 -31.8 0.4 -58.1 0.8 -58.3 1 -0.2 0.2 0 12.2 0.4 26.6 l0.7 26.3 21.6 -0.6 c11.9 -0.4 50.5 -0.7 85.9 -0.7 l64.2 0 0 -20.7 c0 -52.5 3.1 -202.7 4.2 -204 1 -1.2 25 -1.4 151.4 -1.1 98.5 0.2 150.6 0.6 151.3 1.3 0.6 0.6 1.2 33.9 1.7 87.1 l0.7 86.1 -2.3 2.3 -2.2 2.2 -56.8 -0.3 -56.7 -0.4 -0.7 14 c-0.3 7.7 -0.6 18.8 -0.6 24.8 l0 10.7 88.9 0 88.9 0 0.4 -112.9 c0.3 -97.4 0.6 -113.1 1.8 -114.6 1.4 -1.7 7.4 -1.8 123 -1 145.1 0.9 178.4 1.5 180.2 3.3 2 2 2.6 24 2.7 99.4 l0.1 69.7 -2.1 1.2 c-1.5 0.7 -19.5 1.1 -60.2 1.2 l-58.2 0.2 -0.1 26.8 0 26.8 16 -0.6 c8.9 -0.3 48.8 -0.8 88.9 -1.1 l72.7 -0.6 0 -110 c0 -60.4 0.2 -110.3 0.5 -110.9 0.4 -0.5 2.1 -1.7 3.8 -2.6 2.9 -1.5 13.3 -1.6 128.7 -0.9 69 0.3 136 0.9 148.9 1.3 l23.3 0.6 1.5 3.6 c1.4 3.2 1.5 13.2 0.8 83.3 -0.3 43.9 -0.8 80.9 -1 82.3 -0.1 1.5 -0.7 3.1 -1.2 3.6 -0.5 0.5 -25.4 1 -58.6 1.1 l-57.7 0.3 0 25.8 0 25.7 90.5 0 90.5 0 0 30 -0.1 30 -114.2 0 c-62.8 0 -119.3 -0.3 -125.5 -0.7 -11 -0.6 -11.3 -0.7 -12 -3.2 -0.4 -1.4 -0.7 -39.4 -0.7 -84.3 0 -74.3 0.1 -81.9 1.6 -83.4 1.3 -1.2 2.1 -1.3 3.6 -0.6 1.5 0.8 2.2 0.7 3.1 -0.9 1.2 -1.8 3 -1.9 57.7 -1.9 l56.5 0 -0.2 -24.2 -0.3 -24.3 -56 -0.6 c-30.8 -0.4 -69.6 -0.9 -86.2 -1.3 l-30.3 -0.5 0 32.2 c0 56.2 -2.9 185.8 -4.1 187.3 -1.4 1.7 -4.6 1.8 -5.2 0.2 -0.4 -1 -0.6 -1 -0.6 0 -0.1 0.8 0.8 1.6 1.8 1.9 2.4 0.6 3.4 3 1.8 4 -0.7 0.4 -4.1 1 -7.7 1.4 -11.6 1.1 -295.3 -1.1 -296.8 -2.3 -0.7 -0.6 -1.2 -2.1 -1 -3.2 0.1 -1.2 -0.2 -2.8 -0.7 -3.6 -0.6 -0.9 -0.9 -30.8 -0.7 -81 0.3 -66 0.6 -79.9 1.7 -81.7 1.9 -2.9 8.5 -3.2 71 -3.6 l51 -0.2 -0.4 -24.5 c-0.2 -13.5 -0.4 -24.6 -0.5 -24.6 0 -0.1 -39.3 -0.5 -87.2 -0.9 l-87.2 -0.8 -0.7 74.9 c-0.4 41.2 -1 91.3 -1.3 111.3 -0.6 33.1 -0.9 36.5 -2.4 37.5 -1.3 0.8 -2.3 0.8 -3.5 0 -1.2 -0.6 -9.3 -0.8 -24.3 -0.3 -12.4 0.4 -79.7 1 -149.7 1.4 l-127.1 0.7 -1.3 -2.3 c-1.4 -2.6 -0.9 -52.6 1.2 -125.4 1.2 -43.8 1.5 -45.8 6.2 -45.5 1.2 0.1 26.8 0.2 57 0.1 l54.7 -0.1 0 -25.5 0 -25.5 -57.7 0 c-31.8 0.1 -70.7 0.4 -86.4 0.7 l-28.6 0.6 -0.7 68.6 c-1.1 106.4 -2.2 153.1 -3.5 154.4 -0.9 0.9 -38.5 1.2 -151.8 1.2 -140.8 0.1 -150.8 -0.1 -152.7 -1.7 -1.7 -1.3 -1.9 -2 -1 -3.5 0.7 -1.2 0.8 -7.7 0.3 -20.3 -1.2 -29.6 -3.1 -149.1 -2.4 -149.8 0.4 -0.4 3.5 -0.7 6.8 -0.7 16.2 -0.2 106.7 -2.7 110.5 -3.1 l4.2 -0.5 0 -22.5 0 -22.4 -69.7 0.6 c-38.4 0.4 -78.2 0.9 -88.5 1.3 l-18.8 0.6 -0.1 108.3 c-0.1 102.9 -0.2 108.3 -1.9 110.5 l-1.8 2.2 -68.9 -0.5 c-83.9 -0.6 -156.5 -0.6 -201.6 -0.1 -23.5 0.3 -34.1 0.1 -34.9 -0.7 -2.6 -2.6 -3 -20 -2.1 -96.4 0.7 -60.8 1.2 -78 2.2 -79.2 0.7 -0.9 2.5 -1.5 4 -1.4 1.4 0.1 28.6 0.1 60.4 0 l57.7 -0.2 0 -24.2 0 -24.3 -87.7 0.3 c-48.3 0.1 -88.3 0.2 -89 0.2 -0.8 0 -1.1 23.6 -1.2 95.8 -0.1 101.2 -0.5 122.7 -2.7 128 l-1.3 3.2 -58.3 0 c-76.5 -0.1 -236.1 -1.9 -241.7 -2.8 l-4.4 -0.7 -0.4 -5.5 c-1 -12.8 -0.2 -163.5 0.9 -164.7 0.5 -0.7 2.6 -1.2 4.6 -1.1 2.1 0.1 16.5 -0.4 32.2 -1.1 15.7 -0.6 40.6 -1.5 55.3 -2 14.7 -0.5 26.9 -1 27.1 -1.2 0.2 -0.2 0.1 -11.1 -0.2 -24.1 l-0.5 -23.8 -20.1 0.6 c-11 0.3 -50 0.9 -86.4 1.4 -36.5 0.5 -66.5 1 -66.7 1.2 -0.2 0.2 -0.8 43.1 -1.5 95.3 -0.7 52.3 -1.5 101.3 -1.8 109 l-0.7 14 -2.7 0.3 c-1.6 0.2 -3 1.1 -3.3 2.2 -0.3 1 -1.2 2.1 -2 2.4 -1.8 0.7 -294.5 1.7 -296.7 1z m298.2 -7.4 c0 -0.5 -1.5 -0.9 -3.2 -0.9 l-3.3 0.1 3 0.8 c1.7 0.4 3.1 0.8 3.3 0.9 0.1 0 0.2 -0.3 0.2 -0.9z m1046.8 0.3 c-1 -0.2 -2.8 -0.2 -4 0 -1.3 0.2 -0.5 0.4 1.7 0.4 2.2 0.1 3.2 -0.1 2.3 -0.4z m133 -2 c-2.7 -0.2 -6.9 -0.2 -9.5 0 -2.7 0.2 -0.5 0.3 4.7 0.3 5.2 0 7.4 -0.1 4.8 -0.3z m-1569.6 -3 c-2.3 -0.2 -6.1 -0.2 -8.5 0 -2.3 0.2 -0.4 0.4 4.3 0.4 4.7 0 6.6 -0.2 4.2 -0.4z m1554.5 -23.5 c-0.2 -1.3 -0.4 -0.5 -0.4 1.7 -0.1 2.2 0.1 3.2 0.4 2.3 0.2 -1 0.2 -2.8 0 -4z m-1318.4 -18.5 c-2.9 -0.2 -7.8 -0.2 -11 0 -3.2 0.2 -0.8 0.3 5.2 0.3 6.1 0 8.7 -0.1 5.8 -0.3z m819.5 0 c-2.1 -0.2 -5.5 -0.2 -7.5 0 -2.1 0.2 -0.4 0.4 3.7 0.4 4.1 0 5.8 -0.2 3.8 -0.4z m-754 -1 c-2.6 -0.2 -7.1 -0.2 -10 0 -2.9 0.2 -0.8 0.3 4.7 0.3 5.5 0 7.9 -0.1 5.3 -0.3z m329 0 c-3.8 -0.2 -9.8 -0.2 -13.5 0 -3.8 0.2 -0.7 0.3 6.7 0.3 7.4 0 10.5 -0.1 6.8 -0.3z m361 0 c-2.7 -0.2 -6.9 -0.2 -9.5 0 -2.7 0.2 -0.5 0.3 4.7 0.3 5.2 0 7.4 -0.1 4.8 -0.3z m644.5 0 c-2.9 -0.2 -7.7 -0.2 -10.5 0 -2.9 0.2 -0.6 0.3 5.2 0.3 5.8 0 8.1 -0.1 5.3 -0.3z m578.4 -9 c-0.2 -2.1 -0.4 -0.6 -0.4 3.2 0 3.9 0.2 5.5 0.4 3.8 0.2 -1.8 0.2 -5 0 -7z m-1673.9 8 c-1.5 -0.2 -4.2 -0.2 -6 0 -1.8 0.2 -0.6 0.4 2.7 0.4 3.3 0 4.8 -0.2 3.3 -0.4z m389 0 c-2.1 -0.2 -5.7 -0.2 -8 0 -2.4 0.2 -0.7 0.4 3.7 0.4 4.4 0 6.3 -0.2 4.3 -0.4z m-37 -1 c-1 -0.2 -2.6 -0.2 -3.5 0 -1 0.3 -0.2 0.5 1.7 0.5 1.9 0 2.7 -0.2 1.8 -0.5z m366 0 c-1 -0.2 -2.6 -0.2 -3.5 0 -1 0.3 -0.2 0.5 1.7 0.5 1.9 0 2.7 -0.2 1.8 -0.5z m153 0 c-7.6 -0.2 -20 -0.2 -27.5 0 -7.6 0.1 -1.4 0.3 13.7 0.3 15.1 0 21.3 -0.2 13.8 -0.3z m143.9 -6.5 c-0.2 -1.3 -0.4 -0.3 -0.4 2.2 0 2.5 0.2 3.5 0.4 2.3 0.2 -1.3 0.2 -3.3 0 -4.5z m-435 -27 c-0.1 -5.7 -0.3 -1.1 -0.3 10.2 0 11.3 0.2 15.9 0.3 10.3 0.2 -5.7 0.2 -14.9 0 -20.5z m-416 -48.5 c-0.1 -13.6 -0.2 -2.7 -0.2 24.2 0 27 0.1 38.1 0.2 24.8 0.2 -13.3 0.2 -35.3 0 -49z m-191 60 c-0.2 -2.1 -0.4 -0.4 -0.4 3.7 0 4.1 0.2 5.8 0.4 3.8 0.2 -2.1 0.2 -5.5 0 -7.5z m1093 0.5 c-0.2 -1.3 -0.4 -0.5 -0.4 1.7 -0.1 2.2 0.1 3.2 0.4 2.3 0.2 -1 0.2 -2.8 0 -4z m-1457 -8 c-0.2 -1.8 -0.4 -0.6 -0.4 2.7 0 3.3 0.2 4.8 0.4 3.3 0.2 -1.5 0.2 -4.2 0 -6z m606 -12 c-0.2 -2.9 -0.3 -0.8 -0.3 4.7 0 5.5 0.1 7.9 0.3 5.3 0.2 -2.6 0.2 -7.1 0 -10z m1217 7 c-0.2 -1.3 -0.4 -0.3 -0.4 2.2 0 2.5 0.2 3.5 0.4 2.3 0.2 -1.3 0.2 -3.3 0 -4.5z m-416 -3.5 c-0.2 -1.6 -0.4 -0.5 -0.4 2.2 0 2.8 0.2 4 0.4 2.8 0.2 -1.3 0.2 -3.5 0 -5z m-675 -11 c-0.2 -2.1 -0.4 -0.6 -0.4 3.2 0 3.9 0.2 5.5 0.4 3.8 0.2 -1.8 0.2 -5 0 -7z m550 -11 c-0.2 -2.1 -0.4 -0.4 -0.4 3.7 0 4.1 0.2 5.8 0.4 3.8 0.2 -2.1 0.2 -5.5 0 -7.5z m-898.9 -2 c-1 -0.2 -2.8 -0.2 -4 0 -1.3 0.2 -0.5 0.4 1.7 0.4 2.2 0.1 3.2 -0.1 2.3 -0.4z m1095.9 0 c-2 -0.2 -5.2 -0.2 -7 0 -1.7 0.2 0 0.4 3.8 0.4 3.9 0 5.3 -0.2 3.2 -0.4z m-1057 -1 c-2 -0.2 -5.2 -0.2 -7 0 -1.7 0.2 0 0.4 3.8 0.4 3.9 0 5.3 -0.2 3.2 -0.4z m51.1 -1 c-2.1 -0.2 -5.5 -0.2 -7.5 0 -2.1 0.2 -0.4 0.4 3.7 0.4 4.1 0 5.8 -0.2 3.8 -0.4z m934.9 -8 c-0.2 -1.6 -0.4 -0.3 -0.4 2.7 0 3 0.2 4.3 0.4 2.8 0.2 -1.6 0.2 -4 0 -5.5z m168 -3 c-0.2 -2.1 -0.4 -0.4 -0.4 3.7 0 4.1 0.2 5.8 0.4 3.8 0.2 -2.1 0.2 -5.5 0 -7.5z m-733.5 9 c-4 -0.2 -10.3 -0.2 -14 0 -3.7 0.2 -0.4 0.3 7.3 0.3 7.7 0 10.7 -0.2 6.7 -0.3z m277.1 -1 c-1.8 -0.2 -4.8 -0.2 -6.5 0 -1.8 0.2 -0.4 0.4 3.2 0.4 3.6 0 5 -0.2 3.3 -0.4z m289.4 -39 c-0.2 -1.6 -0.4 -0.5 -0.4 2.2 0 2.8 0.2 4 0.4 2.8 0.2 -1.3 0.2 -3.5 0 -5z m-126 -12.6 c-0.2 -2.3 -0.3 -0.1 -0.3 4.8 0 5 0.1 6.8 0.3 4.2 0.2 -2.6 0.2 -6.7 0 -9z m-971 7.6 c-0.3 -1 -0.5 -0.2 -0.5 1.7 0 1.9 0.2 2.7 0.5 1.8 0.2 -1 0.2 -2.6 0 -3.5z m52.1 -2 c-1.5 -0.2 -4.2 -0.2 -6 0 -1.8 0.2 -0.6 0.4 2.7 0.4 3.3 0 4.8 -0.2 3.3 -0.4z m773.9 -1 c-2 -0.2 -5.2 -0.2 -7 0 -1.7 0.2 0 0.4 3.8 0.4 3.9 0 5.3 -0.2 3.2 -0.4z m-434.9 -2 c-2.1 -0.2 -5.7 -0.2 -8 0 -2.4 0.2 -0.7 0.4 3.7 0.4 4.4 0 6.3 -0.2 4.3 -0.4z m268.9 -22.5 c-0.2 -2.4 -0.4 -0.7 -0.4 3.7 0 4.4 0.2 6.3 0.4 4.3 0.2 -2.1 0.2 -5.7 0 -8z m920 -1.5 c-0.2 -2.1 -0.4 -0.6 -0.4 3.2 0 3.9 0.2 5.5 0.4 3.8 0.2 -1.8 0.2 -5 0 -7z m-1460 -6.5 c-0.2 -1.3 -0.4 -0.5 -0.4 1.7 -0.1 2.2 0.1 3.2 0.4 2.3 0.2 -1 0.2 -2.8 0 -4z m1094 -9.5 c-0.2 -1.6 -0.4 -0.3 -0.4 2.7 0 3 0.2 4.3 0.4 2.8 0.2 -1.6 0.2 -4 0 -5.5z m-1282 -2 c-0.3 -1 -0.5 -0.2 -0.5 1.7 0 1.9 0.2 2.7 0.5 1.8 0.2 -1 0.2 -2.6 0 -3.5z m1040 -23 c-0.2 -2.7 -0.3 -0.5 -0.3 4.7 0 5.2 0.1 7.4 0.3 4.8 0.2 -2.7 0.2 -6.9 0 -9.5z m-215.9 7 c-4.2 -0.2 -11.4 -0.2 -16 0 -4.6 0.1 -1.1 0.3 7.7 0.3 8.8 0 12.5 -0.2 8.3 -0.3z m-1154.5 -1 c-1.8 -0.2 -4.8 -0.2 -6.5 0 -1.8 0.2 -0.4 0.4 3.2 0.4 3.6 0 5 -0.2 3.3 -0.4z m354 0 c-3.5 -0.2 -9.1 -0.2 -12.5 0 -3.5 0.2 -0.7 0.3 6.2 0.3 6.9 0 9.7 -0.1 6.3 -0.3z m-293.5 -1 c-2.6 -0.2 -7.1 -0.2 -10 0 -2.9 0.2 -0.8 0.3 4.7 0.3 5.5 0 7.9 -0.1 5.3 -0.3z m376.5 0 c-3.5 -0.2 -9.1 -0.2 -12.5 0 -3.5 0.2 -0.7 0.3 6.2 0.3 6.9 0 9.7 -0.1 6.3 -0.3z m1155.5 0 c-5.4 -0.2 -14.2 -0.2 -19.5 0 -5.4 0.1 -1 0.3 9.7 0.3 10.7 0 15.1 -0.2 9.8 -0.3z m351 0 c-2.1 -0.2 -5.5 -0.2 -7.5 0 -2.1 0.2 -0.4 0.4 3.7 0.4 4.1 0 5.8 -0.2 3.8 -0.4z m-1808.5 -1 c-2.9 -0.2 -7.8 -0.2 -11 0 -3.2 0.2 -0.8 0.3 5.2 0.3 6.1 0 8.7 -0.1 5.8 -0.3z m2093.5 0 c-4.2 -0.2 -11.4 -0.2 -16 0 -4.6 0.1 -1.1 0.3 7.7 0.3 8.8 0 12.5 -0.2 8.3 -0.3z m-1417.5 -1 c-4 -0.2 -10.6 -0.2 -14.5 0 -4 0.1 -0.8 0.3 7.2 0.3 8 0 11.2 -0.2 7.3 -0.3z m125.4 -35 c-0.1 -4.3 -0.3 -1 -0.3 7.2 0 8.3 0.2 11.8 0.3 7.8 0.2 -4 0.2 -10.7 0 -15z m-366.7 -8.3 c0 -3.3 -0.3 -6 -0.7 -6 -0.5 0 -0.6 2.7 -0.5 6 0.5 7.7 1.2 7.7 1.2 0z m269.7 -2.7 c-2 -0.2 -5.2 -0.2 -7 0 -1.7 0.2 0 0.4 3.8 0.4 3.9 0 5.3 -0.2 3.2 -0.4z m-776.4 -2 c-4 -0.2 -10.7 -0.2 -15 0 -4.3 0.1 -1 0.3 7.2 0.3 8.3 0 11.8 -0.2 7.8 -0.3z m1685.5 -2 c-1 -0.2 -2.8 -0.2 -4 0 -1.3 0.2 -0.5 0.4 1.7 0.4 2.2 0.1 3.2 -0.1 2.3 -0.4z"/>
  <path d="M1986 143.9 c-645.3 -1.7 -1943.5 -4.9 -1964.2 -4.9 l-21.8 0 0 -28.5 0 -28.5 99.8 0 c54.8 0 206.1 -0.2 336.2 -0.5 283.8 -0.7 1723.6 -2.5 1949.3 -2.5 l159.7 0 0 33 0 33 -126.7 -0.2 c-69.8 -0.1 -264.3 -0.5 -432.3 -0.9z m-259.7 -8.6 c-13.8 -0.2 -36.8 -0.2 -51 0 -14.2 0.1 -2.8 0.2 25.2 0.2 28.1 0 39.7 -0.1 25.8 -0.2z m-1272.5 -47 c-4.3 -0.2 -11.3 -0.2 -15.5 0 -4.3 0.1 -0.8 0.3 7.7 0.3 8.5 0 12 -0.2 7.8 -0.3z m1130.5 -1 c-33.6 -0.2 -89 -0.2 -123 0 -34 0.1 -6.4 0.2 61.2 0.2 67.7 0 95.5 -0.1 61.8 -0.2z m686.5 -1 c-7.5 -0.2 -20.1 -0.2 -28 0 -7.9 0.1 -1.7 0.3 13.7 0.3 15.4 0 21.8 -0.2 14.3 -0.3z"/>
 </g>
</svg>